HIERARCHY
ROOT Hips
{
	OFFSET 0.000000 88.474243 0.000000
	CHANNELS 6 Xposition Yposition Zposition Zrotation Yrotation Xrotation 
	JOINT Hips_Spine
	{
		OFFSET 0.000000 0.000000 0.000000
		CHANNELS 3 Zrotation Yrotation Xrotation
		JOINT Spine
		{
			OFFSET 0.005100 8.711998 -0.691000
			CHANNELS 3 Zrotation Yrotation Xrotation
			JOINT Spine1
			{
				OFFSET -0.009200 8.660301 -1.275000
				CHANNELS 3 Zrotation Yrotation Xrotation
				JOINT Spine2
				{
					OFFSET 0.006300 9.852501 -1.857000
					CHANNELS 3 Zrotation Yrotation Xrotation
					JOINT Spine2_Neck
					{
						OFFSET 0.000000 0.000000 0.000000
						CHANNELS 3 Zrotation Yrotation Xrotation
						JOINT Neck
						{
							OFFSET 0.016300 11.420799 -0.263300
							CHANNELS 3 Zrotation Yrotation Xrotation
							End Site #name: Head
							{
								OFFSET -0.019200 9.262405 2.362500
							}
						}
					}
					JOINT Spine2_LeftShoulder
					{
						OFFSET 0.000000 0.000000 0.000000
						CHANNELS 3 Zrotation Yrotation Xrotation
						JOINT LeftShoulder
						{
							OFFSET 5.616900 6.732201 -0.345700
							CHANNELS 3 Zrotation Yrotation Xrotation
							JOINT LeftArm
							{
								OFFSET 10.664888 -0.183372 -2.440700
								CHANNELS 3 Zrotation Yrotation Xrotation
								JOINT LeftForeArm
								{
									OFFSET 27.459126 0.000000 0.000000
									CHANNELS 3 Zrotation Yrotation Xrotation
									End Site #name: LeftHand
									{
										OFFSET 21.306858 0.000000 0.000000
									}
								}
							}
						}
					}
					JOINT Spine2_RightShoulder
					{
						OFFSET 0.000000 0.000000 0.000000
						CHANNELS 3 Zrotation Yrotation Xrotation
						JOINT RightShoulder
						{
							OFFSET -5.580300 6.737503 -0.344400
							CHANNELS 3 Zrotation Yrotation Xrotation
							JOINT RightArm
							{
								OFFSET -10.679335 -0.188484 -2.383900
								CHANNELS 3 Zrotation Yrotation Xrotation
								JOINT RightForeArm
								{
									OFFSET -27.503529 0.000000 0.000000
									CHANNELS 3 Zrotation Yrotation Xrotation
									End Site #name: RightHand
									{
										OFFSET -21.306808 0.000000 0.000000
									}
								}
							}
						}
					}
				}
			}
		}
	}
	JOINT Hips_LeftUpLeg
	{
		OFFSET 0.000000 0.000000 0.000000
		CHANNELS 3 Zrotation Yrotation Xrotation
		JOINT LeftUpLeg
		{
			OFFSET 6.857700 -6.739601 0.312100
			CHANNELS 3 Zrotation Yrotation Xrotation
			JOINT LeftLeg
			{
				OFFSET -0.367590 -34.731552 -4.572400
				CHANNELS 3 Zrotation Yrotation Xrotation
				End Site #name: LeftFoot
				{
					OFFSET 0.367590 -34.656704 -6.067400
				}
			}
		}
	}
	JOINT Hips_RightUpLeg
	{
		OFFSET 0.000000 0.000000 0.000000
		CHANNELS 3 Zrotation Yrotation Xrotation
		JOINT RightUpLeg
		{
			OFFSET -6.876100 -6.733299 0.301000
			CHANNELS 3 Zrotation Yrotation Xrotation
			JOINT RightLeg
			{
				OFFSET 0.347353 -34.795158 -4.515900
				CHANNELS 3 Zrotation Yrotation Xrotation
				End Site #name: RightFoot
				{
					OFFSET -0.347353 -34.589367 -6.070300
				}
			}
		}
	}
}
MOTION
Frames: 10
Frame Time: 0.041667
0.397305 0.763793 -0.402932 2.275194 -13.793380 -6.558931 -0.000000 0.000000 -0.000000 -2.804592 -0.851338 -3.865474 2.231993 -2.029189 -6.084428 0.000000 0.000000 0.000000 2.692955 -1.525723 -6.091699 3.010694 -6.109060 -4.497943 1.220901 -1.782173 -6.920656 -17.157639 -1.470153 9.616137 -54.357642 10.813561 -2.475864 -0.864323 -20.656960 8.603167 1.673921 -1.956170 -3.320885 3.594951 5.905196 1.434491 65.871517 -1.288257 -8.611543 0.459225 47.422422 -0.696130 -0.000000 0.000000 -0.000000 -10.841207 25.575248 -1.037442 -2.522580 -0.139144 18.794054 0.000000 0.000000 0.000000 -7.026881 7.012544 -21.098384 5.645098 -3.620229 14.832502 
0.100478 0.776219 -0.438771 2.006657 -15.007241 -6.429874 -0.000000 0.000000 -0.000000 -1.853200 -0.898214 -4.565465 2.425678 -2.048504 -6.025448 0.000000 0.000000 0.000000 2.869905 -1.477357 -6.051342 2.988009 -6.225767 -4.196334 1.427592 -1.735814 -6.812152 -16.534653 -1.579030 9.696751 -55.291404 11.812116 -3.258007 -0.894136 -21.369070 8.533684 1.866609 -1.917507 -3.332035 3.727012 6.075561 1.484679 65.683515 -1.411016 -8.558785 0.470625 47.703983 -0.689823 -0.000000 -0.000000 -0.000000 -10.197068 25.769793 -0.542007 -2.674947 -0.385411 18.684546 0.000000 0.000000 0.000000 -6.220215 7.391098 -21.660139 5.625428 -4.493526 14.930219 
-0.173401 0.787220 -0.470337 1.698416 -16.105345 -6.287315 -0.000000 0.000000 -0.000000 -0.838719 -0.887003 -5.193587 2.625786 -2.054218 -5.938915 0.000000 0.000000 0.000000 3.050439 -1.426597 -5.991747 2.948407 -6.396002 -3.826263 1.642429 -1.686510 -6.676384 -15.932960 -1.704284 9.753965 -56.234416 12.724238 -4.032348 -0.929948 -21.999164 8.483781 2.059982 -1.875654 -3.327055 3.905730 6.226350 1.518147 65.537544 -1.505970 -8.419094 0.487301 47.911810 -0.684045 -0.000000 -0.000000 -0.000000 -9.582459 25.972039 0.023953 -2.823113 -0.690140 18.554480 0.000000 0.000000 0.000000 -5.408553 7.827180 -22.068886 5.802332 -4.969787 15.043837 
-0.413013 0.790248 -0.504329 1.441170 -17.292652 -6.183492 -0.000000 0.000000 -0.000000 0.168673 -0.851532 -5.739399 2.814137 -2.051469 -5.817798 0.000000 0.000000 0.000000 3.219183 -1.373364 -5.913862 2.893256 -6.543386 -3.403253 1.842344 -1.634968 -6.518764 -15.330262 -1.855773 9.769084 -57.145279 13.479817 -4.776813 -0.978946 -22.666229 8.435117 2.242787 -1.829894 -3.307465 4.090796 6.380766 1.544816 65.407841 -1.536174 -8.234432 0.498857 48.144744 -0.681012 -0.000000 -0.000000 -0.000000 -8.929154 26.196504 0.637403 -2.978002 -0.982500 18.402800 0.000000 -0.000000 0.000000 -4.647619 8.275686 -22.413093 5.975809 -5.382103 15.185807 
-0.608095 0.787651 -0.540709 1.269528 -18.793375 -6.115109 -0.000000 0.000000 -0.000000 0.897282 -0.855943 -6.306046 2.980065 -2.049955 -5.689377 0.000000 0.000000 0.000000 3.338530 -1.316353 -5.807326 2.813874 -6.658263 -2.907982 2.019737 -1.583194 -6.349433 -14.731230 -2.003652 9.762875 -57.943189 13.978672 -5.567591 -1.030017 -23.283525 8.379594 2.404391 -1.785761 -3.280629 4.348197 6.560659 1.579340 65.218144 -1.696726 -8.144679 0.516373 48.587986 -0.678017 -0.000000 -0.000000 -0.000000 -8.294104 26.453866 1.285287 -3.178079 -1.227638 18.207822 0.000000 -0.000000 0.000000 -3.946966 8.718589 -22.740489 6.146652 -5.649539 15.458943 
-0.747973 0.785680 -0.577860 1.201568 -20.728307 -6.079037 -0.000000 -0.000000 0.000000 1.514297 -0.884334 -6.791563 3.121267 -2.058873 -5.547962 0.000000 0.000000 0.000000 3.432454 -1.266804 -5.687225 2.702046 -6.727949 -2.349860 2.175467 -1.541093 -6.173775 -14.171837 -2.143655 9.740431 -58.698934 14.360233 -6.297811 -1.083919 -23.877540 8.316963 2.542844 -1.745794 -3.242400 4.674504 6.759711 1.625743 64.943951 -1.918676 -8.125030 0.540486 49.188134 -0.662443 -0.000000 -0.000000 -0.000000 -7.688164 26.705130 1.978278 -3.412892 -1.361405 17.938815 0.000000 -0.000000 0.000000 -3.343512 9.199445 -23.087175 6.293966 -5.817352 15.898033 
-0.824109 0.785385 -0.617135 1.249378 -23.265332 -6.099895 -0.000000 -0.000000 0.000000 1.998843 -0.954495 -7.082820 3.247490 -2.079663 -5.391683 0.000000 0.000000 0.000000 3.510847 -1.224977 -5.548915 2.535348 -6.752107 -1.699519 2.313847 -1.509994 -5.987169 -13.658111 -2.292545 9.679073 -59.473642 14.619899 -6.946240 -1.155528 -24.450908 8.242814 2.658380 -1.720376 -3.186228 5.003348 6.953531 1.669241 64.655849 -2.188151 -8.117213 0.568785 49.801060 -0.643598 -0.000000 -0.000000 -0.000000 -7.169449 26.863759 2.680370 -3.679816 -1.395553 17.629383 0.000000 -0.000000 0.000000 -2.842618 9.690844 -23.513293 6.421630 -5.884455 16.523260 
-0.832484 0.786995 -0.658099 1.396486 -26.396525 -6.160346 -0.000000 -0.000000 0.000000 2.254356 -1.095163 -7.122061 3.356447 -2.106001 -5.221336 0.000000 0.000000 0.000000 3.576306 -1.192481 -5.390674 2.320548 -6.733011 -0.968204 2.441035 -1.489505 -5.796574 -13.190162 -2.445657 9.575142 -60.146477 14.784890 -7.372066 -1.222106 -24.866477 8.158253 2.761983 -1.708125 -3.121042 5.295246 7.127563 1.708579 64.388056 -2.462909 -8.099976 0.599037 50.365491 -0.625171 -0.000000 -0.000000 -0.000000 -6.790600 26.902561 3.334285 -4.008437 -1.416518 17.428650 0.000000 -0.000000 0.000000 -2.433643 10.174347 -24.043169 6.526209 -5.868704 17.380828 
-0.769707 0.791772 -0.701317 1.629397 -29.565449 -6.272759 -0.000000 -0.000000 0.000000 2.458223 -1.248725 -7.106017 3.447938 -2.125792 -5.044188 0.000000 0.000000 0.000000 3.630320 -1.164734 -5.213374 2.090205 -6.641628 -0.269356 2.557327 -1.477622 -5.609267 -12.816094 -2.590443 9.445404 -60.697591 14.888748 -7.660472 -1.301502 -25.207487 8.089721 2.851158 -1.704620 -3.047061 5.521280 7.279871 1.739983 64.155666 -2.689412 -8.030347 0.631544 50.856623 -0.604174 -0.000000 -0.000000 -0.000000 -6.622375 26.696772 3.869669 -4.282259 -1.446082 17.325650 0.000000 -0.000000 0.000000 -2.149254 10.643602 -24.694189 6.627491 -5.782779 18.463310 
-0.640902 0.798699 -0.747797 1.947987 -32.685331 -6.448774 -0.000000 -0.000000 0.000000 2.655866 -1.399650 -7.055717 3.526959 -2.142560 -4.863527 0.000000 0.000000 0.000000 3.669144 -1.137905 -5.030394 1.934966 -6.298031 0.105785 2.658125 -1.472307 -5.426568 -12.556063 -2.721104 9.288687 -61.109675 14.896601 -7.804007 -1.388203 -25.423313 8.032545 2.925695 -1.703622 -2.969031 5.681534 7.407888 1.764966 63.988371 -2.853640 -7.917830 0.662347 51.212957 -0.582842 -0.000000 -0.000000 -0.000000 -6.650047 26.308442 4.286767 -4.576503 -1.580437 17.448520 0.000000 -0.000000 0.000000 -1.974200 11.113066 -25.441462 6.729623 -5.649967 19.776190 
